# xmcd
#
# Track frame offsets:
#	150
#	13304
#	28520
#	40731
#	54718
#	64745
#	84966
#	98051
#	107775
#	120821
#	132976
#	145124
#	159017
#	176497
#	191198
#	206244
#	216595
#	228276
#	239860
#	251238
#	261028
#	273681
#	283481
#	296339
#	306202
#	321119
#	336004
#
# Disc length: 4671 seconds
#
# Revision: 1
# Processed by: cddbd v1.5.2PL0 Copyright (c) Steve Scherf et al.
# Submitted via: audiograbber 1.83.01
#
DISCID=9d123d1b
DTITLE=Various Artist - Christmas
DYEAR=1900
DGENRE=Christmas
TTITLE0=Alan Jackson - Honky Tonk Christmas
TTITLE1=Alan Jackson - I Only Want You For Christmas
TTITLE2=Doug Stone - Santa's Flying A 747 Tonight
TTITLE3=Eddie Arnold - Put A Ribbon In Your Hair
TTITLE4=Jim Reeves - Snow Flake
TTITLE5=Jimmy Dean - Yes Patricia, There Is A Santa Claus
TTITLE6=Barbara Mandrell - Christmas At Our House
TTITLE7=Brendea Lee - Rockin' around the Christmas Tree
TTITLE8=Kitty Wells - Christmas Ain't Like Christmas Anymore
TTITLE9=Randy Travis - Meet Me Under The Mistletoe
TTITLE10=Dwight Yoakam - Santa Claus Is Back In Town
TTITLE11=Southern Pacific - Run, Roudolph, Run
TTITLE12=Crystal Gayle - Have Yourself a Merry Christmas
TTITLE13=Martina McBride - I'll Be Home For Christmas
TTITLE14=George Strait - Christmas Cookies
TTITLE15=Buck Owens - Santa Looked A Lot Like Daddy
TTITLE16=Gene Autry - Here Comes Santa Claus
TTITLE17=George Jones - My Mom And Santa Claus
TTITLE18=Merle Haggard - Going Home For Christmas
TTITLE19=Loretta Lynn - Country Christmas
TTITLE20=Roy Orbison - Pretty Paper
TTITLE21=Charley Pride - Christmas In My Home Town
TTITLE22=Jim Reeves - An Old Christmas Card
TTITLE23=Elvis Pressley - Blue Christmas
TTITLE24=Skip Ewing - A Christmas Carol
TTITLE25=Tracy Byrd - Christmas  Like Mama
TTITLE26=Bill Anderson - Po Folks Christmas
EXTD=
EXTT0=
EXTT1=
EXTT2=
EXTT3=
EXTT4=
EXTT5=
EXTT6=
EXTT7=
EXTT8=
EXTT9=
EXTT10=
EXTT11=
EXTT12=
EXTT13=
EXTT14=
EXTT15=
EXTT16=
EXTT17=
EXTT18=
EXTT19=
EXTT20=
EXTT21=
EXTT22=
EXTT23=
EXTT24=
EXTT25=
EXTT26=
PLAYORDER=
